<svg width="80" height="76" viewBox="0 0 80 76" fill="none" xmlns="http://www.w3.org/2000/svg">
<path d="M42.3776 4.17173L48.9011 24.2487C49.6374 26.5149 51.7491 28.0491 54.1319 28.0491H75.2421C77.6639 28.0491 78.6708 31.1482 76.7116 32.5717L59.633 44.98C57.7053 46.3805 56.8987 48.863 57.635 51.1292L64.1585 71.2062C64.9068 73.5094 62.2706 75.4248 60.3113 74.0013L43.2328 61.593C41.3051 60.1924 38.6949 60.1924 36.7672 61.593L19.6886 74.0013C17.7294 75.4248 15.0932 73.5095 15.8415 71.2062L22.365 51.1292C23.1013 48.863 22.2947 46.3805 20.367 44.98L3.28844 32.5717C1.32916 31.1482 2.33609 28.0491 4.75791 28.0491H25.8681C28.2509 28.0491 30.3626 26.5149 31.0989 24.2487L37.6224 4.17172C38.3707 1.86845 41.6293 1.86845 42.3776 4.17173Z" stroke="url(#paint0_linear_3_6)" stroke-width="3"/>
<defs>
<linearGradient id="paint0_linear_3_6" x1="40" y1="-8" x2="40" y2="92" gradientUnits="userSpaceOnUse">
<stop stop-color="#F87619"/>
<stop offset="0.525" stop-color="#FFD600"/>
<stop offset="1" stop-color="#F87619"/>
</linearGradient>
</defs>
</svg>
